<?xml version="1.0" encoding="iso-8859-1"?>
<!-- Generator: Adobe Illustrator 19.0.0, SVG Export Plug-In . SVG Version: 6.00 Build 0)  -->
<svg version="1.1" id="Capa_1" xmlns="http://www.w3.org/2000/svg" xmlns:xlink="http://www.w3.org/1999/xlink" x="0px" y="0px"
	 viewBox="0 0 468.293 468.293" style="enable-background:new 0 0 468.293 468.293;" xml:space="preserve">
<path style="fill:#D5D6DB;" d="M445.389,211.242C445.389,94.577,350.813,0,234.146,0C117.481,0,22.904,94.577,22.904,211.242
	c0,116.667,94.577,211.242,211.242,211.242c5.98,0,11.884-0.309,17.738-0.797l93.851,46.605v-77.707
	C405.556,353.285,445.389,286.931,445.389,211.242z"/>
<circle style="fill:#EBF0F3;" cx="234.146" cy="211.231" r="180.261"/>
<path style="fill:#D5D6DB;" d="M234.241,368.969c-10.415,0-20.69-0.998-30.682-2.965l2.34-11.902
	c9.239,1.816,18.741,2.737,28.247,2.737l0.145,10.966l-0.003,1.164C234.271,368.969,234.256,368.969,234.241,368.969z
	 M265.059,365.944l-2.37-11.902c9.337-1.857,18.516-4.648,27.287-8.291l4.656,11.203
	C285.128,360.906,275.175,363.93,265.059,365.944z M173.965,357.082c-9.52-3.934-18.694-8.83-27.266-14.556l6.736-10.089
	c7.915,5.281,16.381,9.802,25.163,13.43L173.965,357.082z M321.87,342.345l-6.754-10.077c7.891-5.29,15.305-11.386,22.035-18.125
	l8.584,8.572C338.449,330.014,330.419,336.616,321.87,342.345z M122.791,322.949c-7.296-7.272-13.907-15.293-19.654-23.839
	l10.071-6.771c5.305,7.894,11.413,15.302,18.149,22.021L122.791,322.949z M365.339,298.831l-10.083-6.748
	c5.293-7.915,9.822-16.378,13.457-25.151l11.209,4.645C375.982,281.082,371.077,290.253,365.339,298.831z M88.498,271.885
	c-3.966-9.514-7-19.464-9.017-29.568l11.896-2.376c1.863,9.322,4.659,18.499,8.318,27.275L88.498,271.885z M388.876,241.994
	l-11.902-2.352c1.837-9.295,2.767-18.851,2.767-28.398v-0.637h12.133v0.637C391.874,221.579,390.867,231.926,388.876,241.994z
	 M76.419,211.564v-0.32c0-10.234,0.986-20.471,2.933-30.424l11.908,2.328c-1.795,9.189-2.707,18.641-2.707,28.096L76.419,211.564z
	 M376.856,182.245c-1.884-9.316-4.701-18.484-8.38-27.255l11.191-4.692c3.987,9.505,7.041,19.446,9.079,29.547L376.856,182.245z
	 M99.464,155.837l-11.221-4.621c3.919-9.52,8.806-18.7,14.523-27.284l10.101,6.724C107.589,138.58,103.081,147.052,99.464,155.837z
	 M354.916,129.892c-5.317-7.873-11.437-15.267-18.196-21.979l8.549-8.608c7.316,7.263,13.946,15.273,19.701,23.798L354.916,129.892z
	 M130.925,108.562l-8.602-8.555c7.269-7.308,15.285-13.928,23.824-19.68l6.777,10.065C145.04,95.7,137.637,101.814,130.925,108.562z
	 M314.604,89.88c-7.936-5.273-16.413-9.772-25.196-13.377l4.609-11.226c9.517,3.91,18.703,8.786,27.299,14.497L314.604,89.88z
	 M178.032,76.855l-4.68-11.197c9.505-3.972,19.449-7.014,29.553-9.046l2.393,11.896C195.973,70.38,186.8,73.188,178.032,76.855z
	 M262.091,68.327c-9.147-1.777-18.549-2.678-27.945-2.678l-0.335-8.46l0.222-3.673c10.056,0.044,20.465,0.975,30.374,2.903
	L262.091,68.327z"/>
<path style="fill:#64798A;" d="M271.246,211.243c12.704-9.668,20.148-24.497,20.148-40.619c0-28.221-22.96-51.181-51.181-51.181
	h-5.754V98.319h-10.562v21.124h-12.322V98.319h-10.562v21.124H190.45h-13.552v21.124h13.552v60.113h-13.552v21.124h13.552v60.113
	h-13.552v21.124h13.552h10.562v21.124h10.562v-21.124h12.322v21.124h10.562v-21.124h5.754c28.221,0,51.181-22.96,51.181-51.181
	C291.394,235.74,283.95,220.911,271.246,211.243z M240.213,281.918h-28.638v-60.113h28.638c16.572,0,30.057,13.485,30.057,30.057
	S256.785,281.918,240.213,281.918z M240.213,200.681h-28.638v-60.113h28.638c16.572,0,30.057,13.485,30.057,30.057
	S256.785,200.681,240.213,200.681z"/>
<g>
</g>
<g>
</g>
<g>
</g>
<g>
</g>
<g>
</g>
<g>
</g>
<g>
</g>
<g>
</g>
<g>
</g>
<g>
</g>
<g>
</g>
<g>
</g>
<g>
</g>
<g>
</g>
<g>
</g>
</svg>
